# xmcd
# 
# Track frame offsets:
#     150
#     16672
#     30212
#     43195
#     62762
#     73850
#     91735
#     104800
#     120750
#     135477
#     148657
#     171825
# 
# Disc length: 2449
# 
# Revision: 1
# Processed by: cddbd v1.5.2PL0 Copyright (c) Steve Scherf et al.
# Submitted via: BonkEnc v1.0
# 
DISCID=9a098f0c
DTITLE=Os serranos - Os serranos
DYEAR=0
DGENRE=Gaúcho
TTITLE0=Os serranos - Rancho de beira de estrada
TTITLE1=Os serranos - Fandangando
TTITLE2=Os serranos - Bombachudo
TTITLE3=Os serranos - Me comparando ao Rio Grande
TTITLE4=Os serranos - Vaneira grossa
TTITLE5=Os serranos - Vaneirinha do adeus
TTITLE6=Os serranos - Bugio de fronteira
TTITLE7=Os serranos - Chimarrão
TTITLE8=Os serranos - Som campeiro
TTITLE9=Os serranos - Mulher véia
TTITLE10=Os serranos - Namoro de sítio
TTITLE11=Os serranos - Tico tico no fubá
EXTD=
EXTT0=
EXTT1=
EXTT2=
EXTT3=
EXTT4=
EXTT5=
EXTT6=
EXTT7=
EXTT8=
EXTT9=
EXTT10=
EXTT11=
PLAYORDER=
